<svg width="24" height="24" viewBox="0 0 24 24" fill="none" xmlns="http://www.w3.org/2000/svg">
<path d="M13.22 19.03C13.0795 18.8894 13.0007 18.6987 13.0007 18.5C13.0007 18.3012 13.0795 18.1106 13.22 17.97L18.19 13H3.75C3.55109 13 3.36032 12.921 3.21967 12.7803C3.07902 12.6397 3 12.4489 3 12.25C3 12.0511 3.07902 11.8603 3.21967 11.7197C3.36032 11.579 3.55109 11.5 3.75 11.5H18.19L13.22 6.53C13.1213 6.43833 13.0491 6.32172 13.0111 6.19247C12.9731 6.06323 12.9706 5.92612 13.004 5.79559C13.0374 5.66507 13.1053 5.54596 13.2007 5.45082C13.2961 5.35568 13.4154 5.28803 13.546 5.255C13.6764 5.22158 13.8133 5.22391 13.9425 5.26175C14.0717 5.29958 14.1883 5.37152 14.28 5.47L20.53 11.72C20.6705 11.8606 20.7493 12.0512 20.7493 12.25C20.7493 12.4487 20.6705 12.6394 20.53 12.78L14.28 19.03C14.1394 19.1704 13.9488 19.2493 13.75 19.2493C13.5512 19.2493 13.3606 19.1704 13.22 19.03Z" fill="white"/>
</svg>
